<svg id="visual" viewBox="0 0 900 600" width="900" height="600" xmlns="http://www.w3.org/2000/svg" xmlns:xlink="http://www.w3.org/1999/xlink" version="1.1"><rect x="0" y="0" width="900" height="600" fill="#fff"></rect><defs><linearGradient id="grad1_0" x1="33.3%" y1="0%" x2="100%" y2="100%"><stop offset="20%" stop-color="#ffffff" stop-opacity="1"></stop><stop offset="80%" stop-color="#ffffff" stop-opacity="1"></stop></linearGradient></defs><defs><linearGradient id="grad2_0" x1="0%" y1="0%" x2="66.7%" y2="100%"><stop offset="20%" stop-color="#ffffff" stop-opacity="1"></stop><stop offset="80%" stop-color="#ffffff" stop-opacity="1"></stop></linearGradient></defs><g transform="translate(900, 0)"><path d="M0 351.5C-46.2 346.5 -92.4 341.5 -134.5 324.8C-176.6 308.1 -214.7 279.6 -246.1 246.1C-277.5 212.5 -302.3 173.9 -318.7 132C-335.2 90.2 -343.4 45.1 -351.5 0L0 0Z" fill="#00adee"></path></g><g transform="translate(0, 600)"><path d="M0 -351.5C38 -322.6 75.9 -293.7 114 -275.3C152.1 -256.9 190.4 -248.9 228.4 -228.4C266.4 -207.8 304.3 -174.7 324.8 -134.5C345.3 -94.4 348.4 -47.2 351.5 0L0 0Z" fill="#00adee"></path></g></svg>