<svg id="visual" viewBox="0 0 900 450" width="900" height="450" xmlns="http://www.w3.org/2000/svg" xmlns:xlink="http://www.w3.org/1999/xlink" version="1.1"><rect x="0" y="0" width="900" height="450" fill="#fff"></rect><defs><linearGradient id="grad1_0" x1="50%" y1="0%" x2="100%" y2="100%"><stop offset="10%" stop-color="#00adee" stop-opacity="1"></stop><stop offset="90%" stop-color="#00adee" stop-opacity="1"></stop></linearGradient></defs><defs><linearGradient id="grad1_1" x1="50%" y1="0%" x2="100%" y2="100%"><stop offset="10%" stop-color="#00adee" stop-opacity="1"></stop><stop offset="90%" stop-color="#86c8f4" stop-opacity="1"></stop></linearGradient></defs><defs><linearGradient id="grad1_2" x1="50%" y1="0%" x2="100%" y2="100%"><stop offset="10%" stop-color="#c6e3fa" stop-opacity="1"></stop><stop offset="90%" stop-color="#86c8f4" stop-opacity="1"></stop></linearGradient></defs><defs><linearGradient id="grad1_3" x1="50%" y1="0%" x2="100%" y2="100%"><stop offset="10%" stop-color="#c6e3fa" stop-opacity="1"></stop><stop offset="90%" stop-color="#ffffff" stop-opacity="1"></stop></linearGradient></defs><defs><linearGradient id="grad2_0" x1="0%" y1="0%" x2="50%" y2="100%"><stop offset="10%" stop-color="#00adee" stop-opacity="1"></stop><stop offset="90%" stop-color="#00adee" stop-opacity="1"></stop></linearGradient></defs><defs><linearGradient id="grad2_1" x1="0%" y1="0%" x2="50%" y2="100%"><stop offset="10%" stop-color="#86c8f4" stop-opacity="1"></stop><stop offset="90%" stop-color="#00adee" stop-opacity="1"></stop></linearGradient></defs><defs><linearGradient id="grad2_2" x1="0%" y1="0%" x2="50%" y2="100%"><stop offset="10%" stop-color="#86c8f4" stop-opacity="1"></stop><stop offset="90%" stop-color="#c6e3fa" stop-opacity="1"></stop></linearGradient></defs><defs><linearGradient id="grad2_3" x1="0%" y1="0%" x2="50%" y2="100%"><stop offset="10%" stop-color="#ffffff" stop-opacity="1"></stop><stop offset="90%" stop-color="#c6e3fa" stop-opacity="1"></stop></linearGradient></defs><g transform="translate(900, 0)"><path d="M0 405C-29.2 399.8 -58.3 394.5 -89 390C-119.7 385.4 -151.9 381.6 -175.3 364C-198.7 346.4 -213.3 315 -235.1 294.8C-256.8 274.5 -285.6 265.5 -311.2 248.1C-336.8 230.8 -359.1 205.2 -364.9 175.7C-370.6 146.3 -359.7 112.9 -363.6 83C-367.6 53.1 -386.3 26.5 -405 0L0 0Z" fill="#e3f1fc"></path><path d="M0 303.8C-21.9 299.8 -43.7 295.9 -66.8 292.5C-89.8 289.1 -113.9 286.2 -131.5 273C-149 259.8 -160 236.2 -176.3 221.1C-192.6 205.9 -214.2 199.1 -233.4 186.1C-252.6 173.1 -269.4 153.9 -273.7 131.8C-278 109.7 -269.8 84.7 -272.7 62.3C-275.7 39.8 -289.7 19.9 -303.7 0L0 0Z" fill="#a8d5f7"></path><path d="M0 202.5C-14.6 199.9 -29.2 197.3 -44.5 195C-59.8 192.7 -75.9 190.8 -87.6 182C-99.4 173.2 -106.7 157.5 -117.5 147.4C-128.4 137.3 -142.8 132.7 -155.6 124.1C-168.4 115.4 -179.6 102.6 -182.4 87.9C-185.3 73.1 -179.9 56.5 -181.8 41.5C-183.8 26.5 -193.1 13.3 -202.5 0L0 0Z" fill="#5cbaf1"></path><path d="M0 101.3C-7.3 99.9 -14.6 98.6 -22.3 97.5C-29.9 96.4 -38 95.4 -43.8 91C-49.7 86.6 -53.3 78.7 -58.8 73.7C-64.2 68.6 -71.4 66.4 -77.8 62C-84.2 57.7 -89.8 51.3 -91.2 43.9C-92.7 36.6 -89.9 28.2 -90.9 20.8C-91.9 13.3 -96.6 6.6 -101.2 0L0 0Z" fill="#00adee"></path></g><g transform="translate(0, 450)"><path d="M0 -405C29.7 -396.8 59.4 -388.7 85.9 -376.3C112.4 -364 135.8 -347.4 161.4 -335.2C187 -322.9 214.7 -315.1 241.3 -302.6C267.9 -290 293.5 -272.8 315.1 -251.3C336.7 -229.7 354.4 -203.8 364.9 -175.7C375.4 -147.6 378.6 -117.3 384.1 -87.7C389.6 -58 397.3 -29 405 0L0 0Z" fill="#e3f1fc"></path><path d="M0 -303.7C22.3 -297.6 44.5 -291.5 64.4 -282.2C84.3 -273 101.9 -260.5 121.1 -251.4C140.2 -242.2 161 -236.3 181 -226.9C200.9 -217.5 220.1 -204.6 236.3 -188.4C252.5 -172.3 265.8 -152.9 273.7 -131.8C281.5 -110.7 284 -88 288.1 -65.8C292.2 -43.5 298 -21.8 303.8 0L0 0Z" fill="#a8d5f7"></path><path d="M0 -202.5C14.8 -198.4 29.7 -194.3 42.9 -188.2C56.2 -182 67.9 -173.7 80.7 -167.6C93.5 -161.5 107.3 -157.6 120.6 -151.3C134 -145 146.7 -136.4 157.5 -125.6C168.4 -114.9 177.2 -101.9 182.4 -87.9C187.7 -73.8 189.3 -58.7 192.1 -43.8C194.8 -29 198.7 -14.5 202.5 0L0 0Z" fill="#5cbaf1"></path><path d="M0 -101.2C7.4 -99.2 14.8 -97.2 21.5 -94.1C28.1 -91 34 -86.8 40.4 -83.8C46.7 -80.7 53.7 -78.8 60.3 -75.6C67 -72.5 73.4 -68.2 78.8 -62.8C84.2 -57.4 88.6 -51 91.2 -43.9C93.8 -36.9 94.7 -29.3 96 -21.9C97.4 -14.5 99.3 -7.3 101.3 0L0 0Z" fill="#00adee"></path></g></svg>