<svg id="visual" viewBox="0 0 900 600" width="900" height="600" xmlns="http://www.w3.org/2000/svg" xmlns:xlink="http://www.w3.org/1999/xlink" version="1.1"><rect x="0" y="0" width="900" height="600" fill="#fff"></rect><defs><linearGradient id="grad1_0" x1="33.3%" y1="0%" x2="100%" y2="100%"><stop offset="20%" stop-color="#00adee" stop-opacity="1"></stop><stop offset="80%" stop-color="#00adee" stop-opacity="1"></stop></linearGradient></defs><defs><linearGradient id="grad1_1" x1="33.3%" y1="0%" x2="100%" y2="100%"><stop offset="20%" stop-color="#00adee" stop-opacity="1"></stop><stop offset="80%" stop-color="#a8d5f7" stop-opacity="1"></stop></linearGradient></defs><defs><linearGradient id="grad1_2" x1="33.3%" y1="0%" x2="100%" y2="100%"><stop offset="20%" stop-color="#ffffff" stop-opacity="1"></stop><stop offset="80%" stop-color="#a8d5f7" stop-opacity="1"></stop></linearGradient></defs><defs><linearGradient id="grad2_0" x1="0%" y1="0%" x2="66.7%" y2="100%"><stop offset="20%" stop-color="#00adee" stop-opacity="1"></stop><stop offset="80%" stop-color="#00adee" stop-opacity="1"></stop></linearGradient></defs><defs><linearGradient id="grad2_1" x1="0%" y1="0%" x2="66.7%" y2="100%"><stop offset="20%" stop-color="#a8d5f7" stop-opacity="1"></stop><stop offset="80%" stop-color="#00adee" stop-opacity="1"></stop></linearGradient></defs><defs><linearGradient id="grad2_2" x1="0%" y1="0%" x2="66.7%" y2="100%"><stop offset="20%" stop-color="#a8d5f7" stop-opacity="1"></stop><stop offset="80%" stop-color="#ffffff" stop-opacity="1"></stop></linearGradient></defs><g transform="translate(900, 0)"><path d="M0 405.6C-23.6 404.5 -47.2 403.3 -70.4 399.5C-93.7 395.6 -116.5 389.1 -138.2 379.6C-159.8 370.2 -180.3 357.8 -197.5 342.1C-214.7 326.4 -228.5 307.4 -243.6 290.3C-258.7 273.3 -275.1 258.1 -285.7 239.8C-296.4 221.4 -301.3 199.9 -316.1 182.5C-330.9 165.1 -355.6 151.8 -364.6 132.7C-373.6 113.6 -367 88.6 -371.3 65.5C-375.5 42.4 -390.6 21.2 -405.6 0L0 0Z" fill="#d5eafb"></path><path d="M0 270.4C-15.7 269.6 -31.5 268.9 -47 266.3C-62.4 263.7 -77.7 259.4 -92.1 253.1C-106.6 246.8 -120.2 238.5 -131.7 228.1C-143.1 217.6 -152.3 204.9 -162.4 193.6C-172.5 182.2 -183.4 172.1 -190.5 159.8C-197.6 147.6 -200.9 133.3 -210.7 121.7C-220.6 110.1 -237 101.2 -243.1 88.5C-249.1 75.7 -244.7 59 -247.5 43.6C-250.3 28.2 -260.4 14.1 -270.4 0L0 0Z" fill="#73c1f3"></path><path d="M0 135.2C-7.9 134.8 -15.7 134.4 -23.5 133.2C-31.2 131.9 -38.8 129.7 -46.1 126.5C-53.3 123.4 -60.1 119.3 -65.8 114C-71.6 108.8 -76.2 102.5 -81.2 96.8C-86.2 91.1 -91.7 86 -95.2 79.9C-98.8 73.8 -100.4 66.6 -105.4 60.8C-110.3 55 -118.5 50.6 -121.5 44.2C-124.5 37.9 -122.3 29.5 -123.8 21.8C-125.2 14.1 -130.2 7.1 -135.2 0L0 0Z" fill="#00adee"></path></g><g transform="translate(0, 600)"><path d="M0 -405.6C25.3 -409.2 50.5 -412.8 70.4 -399.5C90.3 -386.2 104.9 -356 125.5 -344.9C146.1 -333.7 172.8 -341.6 193 -334.3C213.2 -327 226.9 -304.7 239.8 -285.7C252.6 -266.8 264.7 -251.4 285 -239.1C305.3 -226.9 333.8 -217.9 344.7 -199C355.5 -180.1 348.6 -151.4 352.4 -128.3C356.1 -105.1 370.5 -87.6 381.1 -67.2C391.8 -46.8 398.7 -23.4 405.6 0L0 0Z" fill="#d5eafb"></path><path d="M0 -270.4C16.8 -272.8 33.7 -275.2 47 -266.3C60.2 -257.4 69.9 -237.3 83.7 -229.9C97.4 -222.5 115.2 -227.7 128.7 -222.9C142.1 -218 151.3 -203.1 159.8 -190.5C168.4 -177.9 176.4 -167.6 190 -159.4C203.5 -151.3 222.6 -145.3 229.8 -132.7C237 -120.1 232.4 -100.9 234.9 -85.5C237.4 -70.1 247 -58.4 254.1 -44.8C261.2 -31.2 265.8 -15.6 270.4 0L0 0Z" fill="#73c1f3"></path><path d="M0 -135.2C8.4 -136.4 16.8 -137.6 23.5 -133.2C30.1 -128.7 35 -118.7 41.8 -115C48.7 -111.2 57.6 -113.9 64.3 -111.4C71.1 -109 75.6 -101.6 79.9 -95.2C84.2 -88.9 88.2 -83.8 95 -79.7C101.8 -75.6 111.3 -72.6 114.9 -66.3C118.5 -60 116.2 -50.5 117.5 -42.8C118.7 -35 123.5 -29.2 127 -22.4C130.6 -15.6 132.9 -7.8 135.2 0L0 0Z" fill="#00adee"></path></g></svg>